<svg xmlns="http://www.w3.org/2000/svg" xmlns:xlink="http://www.w3.org/1999/xlink" width="1080" zoomAndPan="magnify" viewBox="0 0 810 809.999993" height="1080" preserveAspectRatio="xMidYMid meet" version="1.0"><defs><g/><clipPath id="id1"><path d="M 724 719 L 810 719 L 810 804.527344 L 724 804.527344 Z M 724 719 " clip-rule="nonzero"/></clipPath></defs><path fill="rgb(1.959229%, 3.919983%, 18.818665%)" d="M 0 0 L 790.613281 0 L 790.613281 790.613281 L 0 790.613281 L 0 0 " fill-opacity="1" fill-rule="nonzero"/><path fill="rgb(95.689392%, 96.469116%, 98.81897%)" d="M 656.65625 220.101562 L 656.65625 307.949219 L 133.558594 307.949219 L 133.558594 220.101562 L 656.65625 220.101562 " fill-opacity="1" fill-rule="nonzero"/><path fill="rgb(95.689392%, 96.469116%, 98.81897%)" d="M 680.789062 760.019531 C 679.0625 760.023438 677.339844 759.96875 675.617188 759.863281 C 673.894531 759.757812 672.179688 759.601562 670.46875 759.390625 C 668.753906 759.179688 667.050781 758.917969 665.355469 758.601562 C 663.660156 758.289062 661.972656 757.921875 660.300781 757.503906 C 658.628906 757.085938 656.96875 756.617188 655.324219 756.09375 C 653.679688 755.574219 652.050781 755.003906 650.441406 754.382812 C 648.832031 753.765625 647.242188 753.09375 645.675781 752.378906 C 644.105469 751.660156 642.5625 750.894531 641.039062 750.082031 C 639.519531 749.269531 638.023438 748.410156 636.554688 747.503906 C 635.085938 746.601562 633.644531 745.652344 632.234375 744.660156 C 630.824219 743.667969 629.445312 742.632812 628.097656 741.554688 C 626.75 740.476562 625.4375 739.359375 624.160156 738.199219 C 622.882812 737.042969 621.640625 735.847656 620.433594 734.613281 C 619.230469 733.378906 618.0625 732.105469 616.9375 730.800781 C 615.808594 729.496094 614.722656 728.15625 613.679688 726.785156 C 612.632812 725.410156 611.632812 724.007812 610.675781 722.574219 C 609.714844 721.140625 608.800781 719.675781 607.933594 718.1875 C 607.0625 716.695312 606.242188 715.179688 605.464844 713.640625 C 604.691406 712.101562 603.960938 710.535156 603.28125 708.953125 C 602.601562 707.367188 601.972656 705.761719 601.390625 704.136719 C 600.808594 702.511719 600.277344 700.871094 599.796875 699.214844 C 599.316406 697.558594 598.886719 695.890625 598.511719 694.207031 C 598.132812 692.523438 597.804688 690.832031 597.53125 689.128906 C 597.257812 687.425781 597.035156 685.714844 596.867188 683.996094 C 596.699219 682.28125 596.582031 680.558594 596.519531 678.835938 C 596.453125 677.113281 596.445312 675.386719 596.484375 673.664062 C 596.527344 671.941406 596.625 670.21875 596.773438 668.5 C 596.917969 666.78125 597.121094 665.066406 597.375 663.363281 C 597.625 661.65625 597.933594 659.957031 598.289062 658.269531 C 598.648438 656.582031 599.054688 654.910156 599.515625 653.246094 C 599.976562 651.582031 600.488281 649.9375 601.046875 648.304688 C 601.609375 646.675781 602.21875 645.0625 602.878906 643.46875 C 603.539062 641.875 604.25 640.304688 605.007812 638.753906 C 605.761719 637.203125 606.566406 635.675781 607.417969 634.175781 C 608.269531 632.675781 609.164062 631.203125 610.105469 629.757812 C 611.046875 628.3125 612.03125 626.894531 613.058594 625.511719 C 614.085938 624.125 615.15625 622.773438 616.265625 621.453125 C 617.375 620.132812 618.527344 618.847656 619.71875 617.597656 C 620.90625 616.351562 622.132812 615.140625 623.398438 613.964844 C 624.660156 612.792969 625.960938 611.65625 627.292969 610.5625 C 628.628906 609.46875 629.996094 608.417969 631.394531 607.40625 C 632.792969 606.398438 634.21875 605.429688 635.675781 604.507812 C 637.132812 603.585938 638.617188 602.710938 640.128906 601.878906 C 641.640625 601.046875 643.175781 600.261719 644.738281 599.527344 C 646.296875 598.789062 647.878906 598.101562 649.480469 597.460938 C 651.082031 596.820312 652.703125 596.230469 654.339844 595.691406 C 655.976562 595.148438 657.632812 594.660156 659.300781 594.222656 C 660.96875 593.78125 662.648438 593.394531 664.339844 593.058594 C 666.03125 592.722656 667.730469 592.4375 669.441406 592.207031 C 671.152344 591.976562 672.867188 591.796875 674.585938 591.671875 C 676.308594 591.546875 678.03125 591.472656 679.753906 591.453125 C 681.480469 591.433594 683.203125 591.464844 684.925781 591.550781 C 686.648438 591.636719 688.367188 591.773438 690.082031 591.964844 C 691.796875 592.15625 693.503906 592.398438 695.203125 592.695312 C 696.902344 592.992188 698.589844 593.339844 700.269531 593.738281 C 701.945312 594.136719 703.609375 594.589844 705.261719 595.089844 C 706.914062 595.589844 708.546875 596.144531 710.164062 596.746094 C 711.777344 597.347656 713.375 598 714.953125 598.699219 C 716.527344 599.398438 718.082031 600.144531 719.613281 600.941406 C 721.144531 601.738281 722.648438 602.578125 724.128906 603.464844 C 725.605469 604.355469 727.058594 605.285156 728.480469 606.261719 C 729.898438 607.238281 731.289062 608.257812 732.648438 609.320312 C 734.007812 610.382812 735.335938 611.488281 736.625 612.628906 C 737.917969 613.773438 739.171875 614.957031 740.390625 616.175781 C 741.855469 617.640625 743.265625 619.152344 744.617188 620.71875 C 745.96875 622.285156 747.261719 623.902344 748.496094 625.5625 C 749.730469 627.226562 750.902344 628.929688 752.011719 630.679688 C 753.117188 632.425781 754.160156 634.210938 755.136719 636.039062 C 756.113281 637.863281 757.023438 639.722656 757.859375 641.613281 C 758.699219 643.503906 759.46875 645.425781 760.167969 647.375 C 760.863281 649.324219 761.492188 651.292969 762.042969 653.289062 C 762.59375 655.285156 763.074219 657.296875 763.476562 659.324219 C 763.882812 661.355469 764.210938 663.398438 764.464844 665.453125 C 764.71875 667.507812 764.898438 669.566406 765 671.632812 C 765.101562 673.703125 765.125 675.769531 765.074219 677.839844 C 765.023438 679.90625 764.898438 681.972656 764.695312 684.03125 C 764.492188 686.09375 764.214844 688.140625 763.859375 690.179688 C 763.507812 692.21875 763.078125 694.242188 762.574219 696.25 C 762.074219 698.257812 761.496094 700.246094 760.847656 702.210938 C 760.199219 704.175781 759.476562 706.113281 758.683594 708.027344 C 757.890625 709.9375 757.03125 711.820312 756.097656 713.667969 C 755.167969 715.515625 754.171875 717.328125 753.105469 719.105469 C 752.042969 720.878906 750.914062 722.613281 749.722656 724.304688 C 748.527344 725.996094 747.277344 727.640625 745.960938 729.242188 C 744.648438 730.839844 743.277344 732.390625 741.851562 733.890625 C 740.421875 735.386719 738.941406 736.832031 737.40625 738.222656 C 735.875 739.609375 734.289062 740.941406 732.660156 742.214844 C 731.027344 743.488281 729.347656 744.699219 727.628906 745.847656 C 725.90625 746.996094 724.144531 748.078125 722.34375 749.097656 C 720.542969 750.117188 718.707031 751.070312 716.832031 751.953125 C 714.960938 752.835938 713.058594 753.652344 711.128906 754.394531 C 709.195312 755.140625 707.242188 755.808594 705.261719 756.410156 C 703.277344 757.007812 701.277344 757.535156 699.257812 757.988281 C 697.238281 758.4375 695.203125 758.816406 693.15625 759.117188 C 691.109375 759.421875 689.054688 759.648438 686.988281 759.796875 C 684.925781 759.949219 682.859375 760.023438 680.789062 760.019531 Z M 680.789062 610.015625 C 679.53125 610.015625 678.277344 610.046875 677.023438 610.117188 C 675.765625 610.1875 674.515625 610.289062 673.265625 610.433594 C 672.019531 610.574219 670.773438 610.75 669.535156 610.960938 C 668.296875 611.171875 667.066406 611.421875 665.84375 611.703125 C 664.617188 611.984375 663.402344 612.304688 662.199219 612.65625 C 660.992188 613.007812 659.796875 613.394531 658.613281 613.816406 C 657.429688 614.238281 656.257812 614.691406 655.101562 615.179688 C 653.941406 615.667969 652.800781 616.1875 651.671875 616.742188 C 650.542969 617.296875 649.433594 617.878906 648.339844 618.496094 C 647.242188 619.113281 646.167969 619.761719 645.109375 620.441406 C 644.054688 621.121094 643.015625 621.828125 642 622.566406 C 640.984375 623.304688 639.988281 624.070312 639.015625 624.867188 C 638.042969 625.664062 637.09375 626.484375 636.167969 627.335938 C 635.242188 628.183594 634.34375 629.058594 633.464844 629.960938 C 632.589844 630.863281 631.742188 631.789062 630.921875 632.738281 C 630.097656 633.6875 629.304688 634.660156 628.535156 635.65625 C 627.769531 636.652344 627.03125 637.667969 626.324219 638.707031 C 625.617188 639.742188 624.9375 640.800781 624.289062 641.878906 C 623.640625 642.953125 623.027344 644.046875 622.441406 645.160156 C 621.855469 646.273438 621.304688 647.398438 620.78125 648.542969 C 620.261719 649.6875 619.777344 650.84375 619.320312 652.015625 C 618.867188 653.1875 618.449219 654.371094 618.0625 655.566406 C 617.675781 656.761719 617.324219 657.96875 617.007812 659.183594 C 616.6875 660.398438 616.40625 661.625 616.160156 662.855469 C 615.914062 664.089844 615.703125 665.324219 615.527344 666.570312 C 615.351562 667.8125 615.210938 669.0625 615.105469 670.3125 C 615 671.566406 614.933594 672.820312 614.898438 674.078125 C 614.867188 675.332031 614.871094 676.589844 614.910156 677.84375 C 614.949219 679.101562 615.023438 680.355469 615.136719 681.605469 C 615.246094 682.855469 615.394531 684.105469 615.578125 685.347656 C 615.761719 686.589844 615.980469 687.828125 616.234375 689.058594 C 616.484375 690.289062 616.773438 691.511719 617.097656 692.722656 C 617.421875 693.9375 617.78125 695.140625 618.171875 696.335938 C 618.566406 697.527344 618.992188 698.710938 619.453125 699.878906 C 619.914062 701.046875 620.40625 702.203125 620.933594 703.34375 C 621.460938 704.484375 622.019531 705.609375 622.609375 706.71875 C 623.203125 707.828125 623.824219 708.917969 624.476562 709.992188 C 625.132812 711.0625 625.816406 712.117188 626.527344 713.152344 C 627.242188 714.183594 627.984375 715.199219 628.757812 716.1875 C 629.53125 717.179688 630.328125 718.148438 631.15625 719.09375 C 631.984375 720.039062 632.839844 720.960938 633.71875 721.855469 C 634.597656 722.753906 635.503906 723.625 636.433594 724.46875 C 637.363281 725.3125 638.320312 726.128906 639.296875 726.921875 C 640.273438 727.710938 641.273438 728.472656 642.292969 729.203125 C 643.3125 729.9375 644.355469 730.640625 645.414062 731.3125 C 646.476562 731.984375 647.554688 732.628906 648.652344 733.238281 C 649.75 733.851562 650.867188 734.429688 651.996094 734.976562 C 653.128906 735.523438 654.273438 736.039062 655.433594 736.519531 C 656.59375 737 657.765625 737.449219 658.953125 737.863281 C 660.140625 738.277344 661.335938 738.65625 662.542969 739.003906 C 663.753906 739.347656 664.96875 739.660156 666.195312 739.9375 C 667.421875 740.210938 668.652344 740.453125 669.894531 740.65625 C 671.132812 740.863281 672.378906 741.035156 673.625 741.167969 C 674.875 741.300781 676.128906 741.398438 677.382812 741.460938 C 678.636719 741.523438 679.894531 741.550781 681.148438 741.539062 C 682.40625 741.53125 683.660156 741.484375 684.914062 741.402344 C 686.167969 741.320312 687.417969 741.203125 688.667969 741.050781 C 689.914062 740.898438 691.15625 740.707031 692.390625 740.484375 C 693.628906 740.257812 694.855469 740 696.078125 739.703125 C 697.296875 739.410156 698.511719 739.082031 699.714844 738.714844 C 700.914062 738.351562 702.105469 737.953125 703.285156 737.519531 C 704.464844 737.085938 705.632812 736.621094 706.785156 736.121094 C 707.9375 735.621094 709.074219 735.089844 710.199219 734.527344 C 711.320312 733.960938 712.425781 733.363281 713.511719 732.738281 C 714.601562 732.109375 715.671875 731.449219 716.722656 730.761719 C 717.773438 730.070312 718.800781 729.351562 719.8125 728.605469 C 720.820312 727.855469 721.808594 727.078125 722.773438 726.273438 C 723.738281 725.46875 724.675781 724.636719 725.59375 723.777344 C 726.511719 722.917969 727.402344 722.035156 728.269531 721.125 C 729.136719 720.214844 729.976562 719.28125 730.789062 718.324219 C 731.601562 717.363281 732.386719 716.382812 733.144531 715.382812 C 733.898438 714.378906 734.625 713.355469 735.324219 712.308594 C 736.023438 711.265625 736.691406 710.199219 737.328125 709.117188 C 737.964844 708.035156 738.570312 706.933594 739.144531 705.816406 C 739.71875 704.699219 740.257812 703.566406 740.765625 702.417969 C 741.277344 701.269531 741.75 700.105469 742.195312 698.929688 C 742.636719 697.753906 743.042969 696.566406 743.417969 695.367188 C 743.792969 694.167969 744.132812 692.957031 744.4375 691.738281 C 744.742188 690.519531 745.011719 689.292969 745.246094 688.058594 C 745.480469 686.824219 745.679688 685.585938 745.84375 684.339844 C 746.007812 683.09375 746.136719 681.84375 746.226562 680.589844 C 746.320312 679.335938 746.375 678.082031 746.394531 676.828125 C 746.414062 675.570312 746.398438 674.316406 746.347656 673.058594 C 746.296875 671.804688 746.207031 670.550781 746.082031 669.300781 C 745.960938 668.050781 745.800781 666.804688 745.605469 665.5625 C 745.410156 664.320312 745.179688 663.085938 744.914062 661.859375 C 744.648438 660.632812 744.347656 659.414062 744.011719 658.203125 C 743.675781 656.992188 743.304688 655.789062 742.898438 654.601562 C 742.496094 653.410156 742.058594 652.234375 741.585938 651.070312 C 741.113281 649.90625 740.609375 648.757812 740.070312 647.621094 C 739.53125 646.484375 738.960938 645.367188 738.359375 644.261719 C 737.757812 643.160156 737.125 642.074219 736.460938 641.007812 C 735.796875 639.941406 735.101562 638.898438 734.375 637.871094 C 733.652344 636.84375 732.898438 635.839844 732.117188 634.855469 C 731.335938 633.871094 730.527344 632.910156 729.6875 631.972656 C 728.851562 631.035156 727.988281 630.125 727.101562 629.238281 C 724.058594 626.195312 720.75 623.476562 717.175781 621.085938 C 713.601562 618.695312 709.828125 616.675781 705.855469 615.027344 C 701.878906 613.378906 697.785156 612.132812 693.566406 611.289062 C 689.347656 610.445312 685.089844 610.023438 680.789062 610.015625 Z M 680.789062 610.015625 " fill-opacity="1" fill-rule="nonzero"/><g clip-path="url(#id1)"><path fill="rgb(95.689392%, 96.469116%, 98.81897%)" d="M 800.273438 804.527344 C 799.046875 804.519531 797.867188 804.28125 796.734375 803.808594 C 795.605469 803.335938 794.605469 802.664062 793.742188 801.792969 L 727.285156 735.382812 C 726.855469 734.953125 726.472656 734.484375 726.132812 733.980469 C 725.792969 733.472656 725.507812 732.9375 725.277344 732.375 C 725.042969 731.8125 724.867188 731.234375 724.75 730.636719 C 724.628906 730.042969 724.570312 729.4375 724.570312 728.828125 C 724.570312 728.222656 724.628906 727.617188 724.75 727.023438 C 724.867188 726.425781 725.042969 725.84375 725.277344 725.285156 C 725.507812 724.722656 725.792969 724.1875 726.132812 723.679688 C 726.472656 723.175781 726.855469 722.707031 727.285156 722.277344 C 727.714844 721.847656 728.183594 721.460938 728.691406 721.125 C 729.195312 720.785156 729.730469 720.5 730.292969 720.269531 C 730.855469 720.035156 731.433594 719.859375 732.03125 719.742188 C 732.628906 719.621094 733.230469 719.5625 733.839844 719.5625 C 734.445312 719.5625 735.050781 719.621094 735.644531 719.742188 C 736.242188 719.859375 736.824219 720.035156 737.386719 720.269531 C 737.945312 720.5 738.480469 720.785156 738.988281 721.125 C 739.492188 721.460938 739.960938 721.847656 740.390625 722.277344 L 806.800781 788.734375 C 807.445312 789.382812 807.984375 790.109375 808.410156 790.914062 C 808.839844 791.722656 809.144531 792.570312 809.320312 793.46875 C 809.496094 794.363281 809.539062 795.265625 809.449219 796.175781 C 809.363281 797.082031 809.140625 797.960938 808.792969 798.804688 C 808.445312 799.648438 807.980469 800.421875 807.402344 801.128906 C 806.824219 801.835938 806.15625 802.445312 805.398438 802.953125 C 804.640625 803.460938 803.824219 803.851562 802.953125 804.117188 C 802.078125 804.386719 801.1875 804.523438 800.273438 804.527344 Z M 800.273438 804.527344 " fill-opacity="1" fill-rule="nonzero"/></g><g fill="rgb(95.689392%, 96.469116%, 98.81897%)" fill-opacity="1"><g transform="translate(365.992373, 554.590712)"><g><path d="M 239.359375 -322.640625 L 239.359375 -108.921875 C 239.359375 -72.617188 229.515625 -44.851562 209.828125 -25.625 C 190.148438 -6.40625 163.070312 3.203125 128.59375 3.203125 C 91.988281 3.203125 62.773438 -7.015625 40.953125 -27.453125 C 19.140625 -47.898438 8.234375 -77.34375 8.234375 -115.78125 L 97.015625 -115.78125 C 97.328125 -90.457031 106.632812 -77.796875 124.9375 -77.796875 C 141.414062 -77.796875 149.65625 -88.171875 149.65625 -108.921875 L 149.65625 -322.640625 Z M 239.359375 -322.640625 "/></g></g></g><g fill="rgb(95.689392%, 96.469116%, 98.81897%)" fill-opacity="1"><g transform="translate(109.622679, 552.315115)"><g><path d="M 242.734375 -320.46875 L 242.734375 -249.5625 L 114.546875 -249.5625 L 114.546875 -193.1875 L 209.09375 -193.1875 L 209.09375 -125.453125 L 114.546875 -125.453125 L 114.546875 0 L 25.453125 0 L 25.453125 -320.46875 Z M 242.734375 -320.46875 "/></g></g></g></svg>